<?xml version="1.0" standalone="no"?>
<!DOCTYPE svg PUBLIC "-//W3C//DTD SVG 1.1//EN" "http://www.w3.org/Graphics/SVG/1.1/DTD/svg11.dtd">
<svg width="500" height="500" version="1.0" xmlns="http://www.w3.org/2000/svg">
<rect x="0" y="0" width="500" height="500" stroke="none" fill="rgb(255,255,208)"/>
<line x1="25" y1="475" x2="25" y2="25" stroke="black" stroke-width="1"/>
<line x1="25" y1="25" x2="475" y2="25" stroke="black" stroke-width="1"/>
<line x1="75" y1="475" x2="75" y2="25" stroke="black" stroke-width="1"/>
<line x1="25" y1="75" x2="475" y2="75" stroke="black" stroke-width="1"/>
<line x1="125" y1="475" x2="125" y2="25" stroke="black" stroke-width="1"/>
<line x1="25" y1="125" x2="475" y2="125" stroke="black" stroke-width="1"/>
<line x1="175" y1="475" x2="175" y2="25" stroke="black" stroke-width="1"/>
<line x1="25" y1="175" x2="475" y2="175" stroke="black" stroke-width="1"/>
<line x1="225" y1="475" x2="225" y2="25" stroke="black" stroke-width="1"/>
<line x1="25" y1="225" x2="475" y2="225" stroke="black" stroke-width="1"/>
<line x1="275" y1="475" x2="275" y2="25" stroke="black" stroke-width="1"/>
<line x1="25" y1="275" x2="475" y2="275" stroke="black" stroke-width="1"/>
<line x1="325" y1="475" x2="325" y2="25" stroke="black" stroke-width="1"/>
<line x1="25" y1="325" x2="475" y2="325" stroke="black" stroke-width="1"/>
<line x1="375" y1="475" x2="375" y2="25" stroke="black" stroke-width="1"/>
<line x1="25" y1="375" x2="475" y2="375" stroke="black" stroke-width="1"/>
<line x1="425" y1="475" x2="425" y2="25" stroke="black" stroke-width="1"/>
<line x1="25" y1="425" x2="475" y2="425" stroke="black" stroke-width="1"/>
<line x1="475" y1="475" x2="475" y2="25" stroke="black" stroke-width="1"/>
<line x1="25" y1="475" x2="475" y2="475" stroke="black" stroke-width="1"/>
<line x1="25" y1="475" x2="175" y2="425" stroke="blue" stroke-width="3"/>
<line x1="25" y1="75" x2="75" y2="225" stroke="blue" stroke-width="3"/>
<line x1="75" y1="225" x2="175" y2="275" stroke="blue" stroke-width="3"/>
<line x1="125" y1="375" x2="25" y2="475" stroke="blue" stroke-width="3"/>
<line x1="125" y1="325" x2="125" y2="375" stroke="blue" stroke-width="3"/>
<line x1="125" y1="75" x2="125" y2="25" stroke="blue" stroke-width="3"/>
<line x1="125" y1="25" x2="25" y2="75" stroke="blue" stroke-width="3"/>
<line x1="175" y1="425" x2="225" y2="475" stroke="blue" stroke-width="3"/>
<line x1="175" y1="275" x2="125" y2="325" stroke="blue" stroke-width="3"/>
<line x1="225" y1="475" x2="325" y2="475" stroke="blue" stroke-width="3"/>
<line x1="275" y1="175" x2="125" y2="75" stroke="blue" stroke-width="3"/>
<line x1="325" y1="475" x2="325" y2="425" stroke="blue" stroke-width="3"/>
<line x1="325" y1="425" x2="475" y2="475" stroke="blue" stroke-width="3"/>
<line x1="325" y1="25" x2="275" y2="175" stroke="blue" stroke-width="3"/>
<line x1="375" y1="325" x2="475" y2="325" stroke="blue" stroke-width="3"/>
<line x1="475" y1="475" x2="375" y2="325" stroke="blue" stroke-width="3"/>
<line x1="475" y1="325" x2="475" y2="275" stroke="blue" stroke-width="3"/>
<line x1="475" y1="275" x2="475" y2="125" stroke="blue" stroke-width="3"/>
<line x1="475" y1="125" x2="325" y2="25" stroke="blue" stroke-width="3"/>
<circle cx="25" cy="475" r="8" stroke="black" stroke-width="1.5" fill="red"/>
<circle cx="25" cy="75" r="8" stroke="black" stroke-width="1.5" fill="red"/>
<circle cx="75" cy="225" r="8" stroke="black" stroke-width="1.5" fill="red"/>
<circle cx="125" cy="375" r="8" stroke="black" stroke-width="1.5" fill="red"/>
<circle cx="125" cy="75" r="8" stroke="black" stroke-width="1.5" fill="red"/>
<circle cx="125" cy="25" r="8" stroke="black" stroke-width="1.5" fill="red"/>
<circle cx="175" cy="425" r="8" stroke="black" stroke-width="1.5" fill="red"/>
<circle cx="175" cy="275" r="8" stroke="black" stroke-width="1.5" fill="red"/>
<circle cx="225" cy="475" r="8" stroke="black" stroke-width="1.5" fill="red"/>
<circle cx="275" cy="175" r="8" stroke="black" stroke-width="1.5" fill="red"/>
<circle cx="325" cy="475" r="8" stroke="black" stroke-width="1.5" fill="red"/>
<circle cx="325" cy="425" r="8" stroke="black" stroke-width="1.5" fill="red"/>
<circle cx="325" cy="25" r="8" stroke="black" stroke-width="1.5" fill="red"/>
<circle cx="375" cy="325" r="8" stroke="black" stroke-width="1.5" fill="red"/>
<circle cx="475" cy="475" r="8" stroke="black" stroke-width="1.5" fill="red"/>
<circle cx="475" cy="325" r="8" stroke="black" stroke-width="1.5" fill="red"/>
<circle cx="475" cy="275" r="8" stroke="black" stroke-width="1.5" fill="red"/>
<circle cx="475" cy="125" r="8" stroke="black" stroke-width="1.5" fill="red"/>
<rect x="117" y="317" width="16" height="16" stroke="black" stroke-width="1.5" fill="green"/>
</svg>
